<svg height="512pt" viewBox="0 0 512 512.001" width="512pt" xmlns="http://www.w3.org/2000/svg"><path d="m512 256c0 141.386719-114.613281 256-256 256-141.382812 0-256-114.613281-256-256s114.617188-256 256-256c141.386719 0 256 114.613281 256 256zm0 0" fill="#4a7aff"/><path d="m512 256c0-16.195312-1.519531-32.035156-4.398438-47.398438l-94.601562-94.601562-303.832031 31.785156 32.714843 266.71875 99.042969 99.042969c4.988281.289063 10.011719.453125 15.074219.453125 141.386719 0 256-114.613281 256-256zm0 0" fill="#2864f0"/><path d="m337.996094 426h-163.992188c-24.855468 0-45.003906-20.148438-45.003906-45.003906v-266.996094h254v266.996094c0 24.855468-20.148438 45.003906-45.003906 45.003906zm0 0" fill="#ffd400"/><path d="m255.59375 114v312h82.402344c24.855468 0 45.003906-20.148438 45.003906-45.003906v-266.996094zm0 0" fill="#fdba12"/><path d="m112 114h288v48h-288zm0 0" fill="#fcaf03"/><path d="m255.59375 114h144.40625v48h-144.40625zm0 0" fill="#ffa300"/><path d="m266.296875 114v98.457031c0 17.695313 14.34375 32.042969 32.039063 32.042969 17.699218 0 32.042968-14.347656 32.042968-32.042969v-3.449219c3.539063 2.035157 7.628906 3.21875 12.003906 3.21875 13.320313 0 24.117188-10.796874 24.117188-24.117187v-74.109375zm0 0" fill="#f24500"/><path d="m256 382c-86.570312 0-157-70.429688-157-157v-111h26v111c0 72.234375 58.765625 131 131 131s131-58.765625 131-131v-111h26v111c0 86.570312-70.429688 157-157 157zm0 0" fill="#fe6a16"/><path d="m387 114v111c0 72.234375-58.765625 131-131 131-.132812 0-.269531-.003906-.40625-.003906v26c.136719 0 .273438.003906.40625.003906 86.570312 0 157-70.429688 157-157v-111zm0 0" fill="#f24500"/></svg>