<svg id="Layer_1" enable-background="new 0 0 512 512" height="512" viewBox="0 0 512 512" width="512" xmlns="http://www.w3.org/2000/svg"><g><path d="m256 21.996c-135.311 0-245.002 109.691-245.002 245.002 0 117.106 82.168 215.006 191.991 239.233l106.264-.053c109.702-24.317 191.749-122.16 191.749-239.181 0-135.31-109.691-245.001-245.002-245.001z" fill="#27a6ff"/><path d="m192.605 94.891c-9.388 0-17.069 7.681-17.069 17.069v54.856c0-9.388 7.681-17.069 17.069-17.069 9.388 0 17.069 7.681 17.069 17.069v-54.856c0-9.388-7.681-17.069-17.069-17.069z" fill="#fea53d"/><path d="m259.69 94.891c-9.388 0-17.069 7.681-17.069 17.069v54.856c0-9.388 7.681-17.069 17.069-17.069 9.388 0 17.069 7.681 17.069 17.069v-54.856c0-9.388-7.681-17.069-17.069-17.069z" fill="#ffc242"/><path d="m159.063 94.891c-9.388 0-17.069 7.681-17.069 17.069v139.465c0 9.388 7.681 17.069 17.069 17.069 9.388 0 17.069-7.681 17.069-17.069v-139.465c0-9.388-7.681-17.069-17.069-17.069z" fill="#fea53d"/><path d="m293.233 94.891c-9.388 0-17.069 7.681-17.069 17.069v148c0 9.388 7.681 17.069 17.069 17.069 9.388 0 17.069-7.681 17.069-17.069v-148c0-9.388-7.681-17.069-17.069-17.069z" fill="#ffd402"/><path d="m226.148 94.891c-9.388 0-17.069 7.681-17.069 17.069v75.575c0 9.388 7.681 17.069 17.069 17.069 9.388 0 17.069-7.681 17.069-17.069v-75.575c0-9.388-7.681-17.069-17.069-17.069z" fill="#ffc242"/><g><path d="m376.328 208.183c-2.266-7.485-10.167-11.717-17.654-9.449l-68.733 20.806c-28.934 8.76-48.374 34.957-48.374 65.187v49.482h28.318v-49.482c0-17.662 11.357-32.966 28.26-38.084l68.732-20.806c7.486-2.266 11.716-10.17 9.451-17.654z" fill="#ade9f7"/></g><path d="m58.881 46.699h-6.246c-7.82 0-14.159 6.339-14.159 14.159s6.339 14.159 14.159 14.159h6.246z" fill="#ade9f7"/><path d="m442.54 46.699h-8.044v28.318h8.044c16.621 0 30.144 13.523 30.144 30.144 0 7.82 6.339 14.159 14.159 14.159s14.159-6.339 14.159-14.159c0-32.236-26.226-58.462-58.462-58.462z" fill="#ade9f7"/><g><path d="m362.771 226.448c-6.078 0-11.695-3.943-13.546-10.061-2.266-7.484 1.964-15.388 9.449-17.654l92.601-28.033c12.806-3.877 21.409-15.471 21.409-28.85v-36.69c0-7.82 6.339-14.159 14.159-14.159s14.159 6.339 14.159 14.159v36.69c0 25.949-16.687 48.435-41.523 55.953l-92.601 28.033c-1.366.415-2.749.612-4.107.612z" fill="#e8f8fc"/></g><path d="m88.076 0h-5.368c-13.97 0-25.399 11.43-25.399 25.399v70.918c0 13.97 11.43 25.399 25.399 25.399h5.368z" fill="#fea53d"/><path d="m410.67 0h-5.368v121.717h5.368c13.97 0 25.399-11.43 25.399-25.399v-70.919c.001-13.969-11.429-25.399-25.399-25.399z" fill="#fffbb3"/><path d="m269.158 0c-25.581 8.408-44.059 32.464-44.059 60.859 0 28.395 18.478 52.45 44.059 60.859h137.749v-121.718z" fill="#fef156"/><path d="m226.983 60.859c0-30.478 22.068-55.785 51.094-60.859h-191.607v121.717h191.607c-29.025-5.073-51.094-30.38-51.094-60.858z" fill="#ffd402"/><path d="m326.322 79.797c-9.388 0-17.069 7.681-17.069 17.069v49.068c0 9.388 7.681 17.069 17.069 17.069 9.388 0 17.069-7.681 17.069-17.069v-49.069c-.001-9.388-7.682-17.068-17.069-17.068z" fill="#fffbb3"/><path d="m141.994 79.797c-9.388 0-17.069 7.681-17.069 17.069v49.068c0 9.388 7.681 17.069 17.069 17.069 9.388 0 17.069-7.681 17.069-17.069v-49.069c0-9.388-7.681-17.068-17.069-17.068z" fill="#fef156"/><path d="m223.556 361.575h65.13c.544 0 1.078.04 1.612.082v-16.682c0-7.051-5.716-12.767-12.767-12.767h-42.82c-7.051 0-12.767 5.716-12.767 12.767v16.682c.533-.041 1.068-.082 1.612-.082z" fill="#e8f8fc"/><path d="m256.121 465.002c-25.034 0-46.317-16.825-53.132-39.722v80.951c17.072 3.766 34.807 5.769 53.011 5.769 18.29 0 36.106-2.021 53.253-5.821v-80.899c-6.815 22.897-28.098 39.722-53.132 39.722z" fill="#1d2e79"/><path d="m248.084 360.527h-24.529c-11.312 0-20.567 9.255-20.567 20.567v46.283c6.815 22.897 28.098 39.722 53.132 39.722 25.034 0 46.317-16.825 53.132-39.722v-34.677c-48.175 15.261-58.898-14.767-61.168-32.173z" fill="#2a428b"/><path d="m288.686 360.527h-40.725c1.99 17.221 12.179 48.732 61.292 33.174v-12.606c0-11.313-9.255-20.568-20.567-20.568z" fill="#3f57a0"/></g></svg>