<svg id="Line" height="512" viewBox="0 0 64 64" width="512" xmlns="http://www.w3.org/2000/svg"><path d="m48.44727 47.72949-4.50489-3.457a.87741.87741 0 0 1 -.33886-.5957.8625.8625 0 0 1 .186-.64942 40.1773 40.1773 0 0 0 3.1333-4.47461 2.78537 2.78537 0 0 0 -.416-3.416l-8.69922-8.69727a1.02933 1.02933 0 0 0 -1.41407 0l-10.62888 10.62985a.9991.9991 0 0 0 -.1792 1.16992l.36133.6914-.585-.36425a1.0009 1.0009 0 0 0 -1.23584.1416l-3.01364 3.01367a.99965.99965 0 0 0 0 1.41406l8.69678 8.69826a2.78474 2.78474 0 0 0 3.41651.417 40.19045 40.19045 0 0 0 4.47412-3.13379.87633.87633 0 0 1 1.24463.15234l3.3667 4.3877a4.52122 4.52122 0 0 0 3.58789 1.77246 4.14908 4.14908 0 0 0 2.727-1.00391 4.31176 4.31176 0 0 0 -.17871-6.69629zm-25.21387-5.30078 1.74512-1.74512 3.02636 1.88575a.99986.99986 0 0 0 1.415-1.31153l-1.72168-3.29394.68073-.68079 1.72894 1.72864a.99989.99989 0 0 0 1.41413-1.41406l-1.72909-1.72866 7.30768-7.30841 4.11474 4.11523-13.86719 13.86718zm24.08838 10.48145a2.17862 2.17862 0 0 1 -1.67578.50684 2.5457 2.5457 0 0 1 -1.74854-.97754l-3.36621-4.38672a2.85985 2.85985 0 0 0 -1.94531-1.10839 2.96523 2.96523 0 0 0 -.34668-.02051 2.84507 2.84507 0 0 0 -1.79541.63672 38.16715 38.16715 0 0 1 -4.25147 2.97754.78665.78665 0 0 1 -.96875-.11817l-2.4624-2.46193 13.86914-13.86913 2.46192 2.46191a.78907.78907 0 0 1 .11816.96875 38.17715 38.17715 0 0 1 -2.97754 4.25195 2.87545 2.87545 0 0 0 .49219 4.08692l4.50439 3.457a2.31353 2.31353 0 0 1 .09229 3.59473z"/><path d="m34.82324 6.03125a4.85424 4.85424 0 0 0 -5.646 0l-24.75824 17.68457a.99968.99968 0 1 0 1.1621 1.627l4.82178-3.44409v31.154a5.82776 5.82776 0 0 0 5.82124 5.82127h17.915a1 1 0 1 0 0-2h-17.915a3.82547 3.82547 0 0 1 -3.82129-3.82129v-32.58256l17.93701-12.81195a2.85826 2.85826 0 0 1 3.3208 0l17.93653 12.8118v19.16281a1 1 0 0 0 2 0v-17.73419l4.82183 3.44415a.99968.99968 0 1 0 1.1621-1.627z"/></svg>